<svg t="1777631326340" class="icon" viewBox="0 0 1024 1024" version="1.1" xmlns="http://www.w3.org/2000/svg" p-id="17376" width="16" height="16"><path d="M788.032 128a48 48 0 0 1 48 48v510.016l-192 209.984H235.904a48 48 0 0 1-48-48V176a48 48 0 0 1 48-48h552.064z m-12.032 60.032h-528v647.936h369.536l158.464-173.248V187.968z" fill="#6C6C6C" p-id="17377"></path><path d="M812.032 622.976v60.032H667.52a17.984 17.984 0 0 0-18.048 17.984v168h-59.968v-168c0-43.072 34.944-78.016 78.016-78.016h144.448z" fill="#6C6C6C" p-id="17378"></path></svg>