<svg t="1777632085620" class="icon" viewBox="0 0 1024 1024" version="1.1" xmlns="http://www.w3.org/2000/svg" p-id="28648" width="16" height="16"><path d="M360 184H352a8 8 0 0 0 8-8v8h304V176c0 4.416 3.616 8 8 8h-8V256H736V176c0-35.296-28.704-64-64-64H352c-35.296 0-64 28.704-64 64V256h72V184zM864 256H160c-17.696 0-32 14.304-32 32v32c0 4.384 3.584 8 8 8h60.416l24.672 523.008A64.064 64.064 0 0 0 284.992 912h454.016a63.904 63.904 0 0 0 63.904-60.992l24.672-523.008h60.416A8 8 0 0 0 896 320V288c0-17.696-14.304-32-32-32z m-132.704 584H292.704l-24.192-512h486.976l-24.192 512z" p-id="28649" fill="#6C6C6C"></path></svg>