<svg xmlns="http://www.w3.org/2000/svg" width="16" height="16" viewBox="0 0 1024 1024">
  <path d="M1013.76 215.04l-184.32 184.32c-10.24 10.24-20.48 10.24-30.72 0L614.4 215.04c-10.24-10.24 0-35.84 20.48-35.84h373.76c10.24 0 20.48 20.48 5.12 35.84zM409.6 332.8H51.2c-25.6 0-51.2-20.48-51.2-51.2 0-25.6 20.48-51.2 51.2-51.2h358.4c25.6 0 51.2 20.48 51.2 51.2s-20.48 51.2-51.2 51.2zM972.8 588.8H51.2c-25.6 0-51.2-20.48-51.2-51.2 0-25.6 20.48-51.2 51.2-51.2h921.6c25.6 0 51.2 20.48 51.2 51.2s-20.48 51.2-51.2 51.2zM972.8 844.8H51.2c-25.6 0-51.2-20.48-51.2-51.2 0-25.6 20.48-51.2 51.2-51.2h921.6c25.6 0 51.2 20.48 51.2 51.2s-20.48 51.2-51.2 51.2z" fill="#6C47FF"/>
</svg>
