<svg t="1777637224872" class="icon" viewBox="0 0 1024 1024" version="1.1" xmlns="http://www.w3.org/2000/svg" width="16" height="16"><path d="M819.2 979.2H204.8c-83.2 0-153.6-70.4-153.6-153.6V454.4c0-19.2 12.8-32 32-32s32 12.8 32 32v364.8c0 51.2 38.4 89.6 89.6 89.6h620.8c51.2 0 89.6-38.4 89.6-89.6V204.8c0-51.2-38.4-89.6-89.6-89.6H454.4c-19.2 0-32-12.8-32-32s12.8-32 32-32h364.8c83.2 0 153.6 70.4 153.6 153.6v620.8c6.4 83.2-64 153.6-153.6 153.6z" fill="#6C6C6C"></path><path d="M729.6 588.8H294.4c-19.2 0-32-12.8-32-32s12.8-32 32-32h435.2c19.2 0 32 12.8 32 32s-12.8 32-32 32z" fill="#6C6C6C"></path><path d="M729.6 774.4H294.4c-19.2 0-32-12.8-32-32s12.8-32 32-32h435.2c19.2 0 32 12.8 32 32s-12.8 32-32 32z" fill="#6C6C6C"></path><path d="M409.6 345.6H76.8c-12.8 0-32-19.2-32-32s19.2-32 32-32h332.8c19.2 0 32 12.8 32 32s-12.8 32-32 32z" fill="#6C6C6C"></path><path d="M416 339.2c-6.4 0-19.2 0-25.6-6.4L307.2 249.6c-12.8-12.8-12.8-32 0-44.8s32-12.8 44.8 0l83.2 83.2c12.8 12.8 12.8 32 0 44.8-6.4 6.4-12.8 6.4-19.2 6.4z" fill="#6C6C6C"></path><path d="M332.8 422.4c-6.4 0-19.2 0-25.6-6.4-12.8-12.8-12.8-32 0-44.8l83.2-83.2c12.8-12.8 32-12.8 44.8 0s12.8 32 0 44.8L352 416c-6.4 6.4-12.8 6.4-19.2 6.4z" fill="#6C6C6C"></path></svg>