<svg xmlns="http://www.w3.org/2000/svg" width="16" height="16" viewBox="0 0 1024 1024">
  <path d="M486.4 352h57.6c6.4 0 6.4 0 6.4 6.4v313.6s0 6.4-6.4 6.4h-57.6c-6.4-6.4-6.4-6.4-6.4-12.8V358.4c0-6.4 0-6.4 6.4-6.4z" fill="#6C6C6C"/>
  <path d="M358.4 480h313.6v64c0 6.4 0 6.4-6.4 6.4H358.4s-6.4 0-6.4-6.4v-57.6c0-6.4 0-6.4 6.4-6.4z" fill="#6C6C6C"/>
  <path d="M832 192c-38.4-38.4-89.6-76.8-140.8-96C633.6 76.8 569.6 64 512 64c-64 0-121.6 12.8-179.2 38.4-51.2 19.2-96 51.2-140.8 96S121.6 288 96 339.2C76.8 396.8 64 454.4 64 512c0 70.4 19.2 140.8 51.2 198.4v153.6c0 25.6 19.2 44.8 44.8 44.8h153.6c64 32 128 44.8 198.4 51.2 57.6 0 115.2-12.8 172.8-32 51.2-19.2 102.4-51.2 140.8-96 38.4-38.4 76.8-89.6 96-140.8 25.6-57.6 38.4-115.2 38.4-179.2 0-64-12.8-121.6-32-172.8-25.6-57.6-57.6-102.4-96-147.2z m-57.6 582.4C704 844.8 608 883.2 512 883.2c-57.6 0-121.6-12.8-172.8-44.8l-6.4-6.4H185.6v-140.8l-6.4-6.4C153.6 633.6 140.8 576 140.8 512c0-102.4 38.4-192 108.8-262.4C320 179.2 409.6 140.8 512 140.8c51.2 0 96 12.8 147.2 32 44.8 19.2 83.2 44.8 121.6 76.8 32 32 64 76.8 76.8 121.6 19.2 44.8 32 96 32 147.2-6.4 96-44.8 185.6-115.2 256z" fill="#6C6C6C"/>
</svg>
