<svg t="1777632365342" class="icon" viewBox="0 0 1024 1024" version="1.1" xmlns="http://www.w3.org/2000/svg" p-id="31834" width="16" height="16"><path d="M850.5 639.9c0.7 38.5 55.9 39.7 55.9 1.9V120.3c0-31.1-25.2-56.3-56.3-56.3H173.9c-31.1 0-56.3 25.2-56.3 56.3v783.2c0 31.1 25.2 56.3 56.3 56.3h309.7c15.6 0 28.4-12.5 28.4-28.1 0-17-11.3-28.3-28.2-28.3H202.1c-15.6 0-28.2-12.6-28.2-28.2V148.5c0-15.6 12.6-28.2 28.2-28.2h619.8c15.6 0 28.2 12.6 28.2 28.2" p-id="31835" fill="#6C6C6C"></path><path d="M314.8 345.7h394.4c16.9 0 28.2-11.3 28.2-28.2s-11.3-28.2-28.2-28.2H314.8c-16.9 0-28.2 11.3-28.2 28.2s11.3 28.2 28.2 28.2zM314.8 514.8h394.4c16.9 0 28.2-11.3 28.2-28.2s-11.3-28.2-28.2-28.2H314.8c-16.9 0-28.2 11.3-28.2 28.2s11.3 28.2 28.2 28.2zM314.8 683.9h169c16.9 0 28.2-11.3 28.2-28.2s-11.3-28.2-28.2-28.2h-169c-16.9 0-28.2 11.3-28.2 28.2s11.3 28.2 28.2 28.2zM878.2 796.6h-84.5v-84.5c0-16.9-11.3-28.2-28.2-28.2s-28.2 11.3-28.2 28.2v84.5h-84.5c-16.9 0-28.2 11.3-28.2 28.2s11.3 28.2 28.2 28.2h84.5v78.9c0 16.9 11.3 28.2 28.2 28.2s28.2-11.3 28.2-28.2V853h84.5c16.9 0 28.2-11.3 28.2-28.2s-11.3-28.2-28.2-28.2z" p-id="31836" fill="#6C6C6C"></path></svg>