<svg t="1777631430317" class="icon" viewBox="0 0 1024 1024" version="1.1" xmlns="http://www.w3.org/2000/svg" p-id="19685" width="16" height="16"><path d="M635.712 480a32.128 32.128 0 0 1-32 34.112L160 514.112a34.112 34.112 0 1 1 0-68.224L599.424 445.888c19.2 0 35.136 14.912 36.288 34.112z" fill="#6C6C6C" p-id="19686"></path><path d="M706.56 454.08A34.112 34.112 0 0 1 710.4 497.6l-3.968 4.736-258.432 258.432a34.112 34.112 0 0 1-52.224-43.52l3.968-4.736 234.368-234.368-234.368-234.24a34.112 34.112 0 0 1-3.968-43.52l3.968-4.8a34.112 34.112 0 0 1 43.52-3.968l4.736 3.968 258.432 258.496z" fill="#6C6C6C" p-id="19687"></path><path d="M838.4 194.112m0 34.112l0 512.064q0 34.112-34.112 34.112l-0.064 0q-34.112 0-34.112-34.112l0-512.064q0-34.112 34.112-34.112l0.064 0q34.112 0 34.112 34.112Z" fill="#6C6C6C" p-id="19688"></path></svg>