<svg xmlns="http://www.w3.org/2000/svg" width="16" height="16" viewBox="0 0 1024 1024">
  <path d="M260.315429 711.789714l328.923428-328.923428a36.717714 36.717714 0 1 1 51.931429 51.931428l-233.654857 233.618286 181.723428 181.686857L848.822857 175.213714 173.897143 434.761143l129.828571 129.828571-51.931428 51.894857-167.899429-167.862857a36.717714 36.717714 0 0 1 12.653714-60.196571L900.827429 75.702857a36.717714 36.717714 0 0 1 47.542857 47.506286L635.574857 927.451429a36.717714 36.717714 0 0 1-60.16 12.653714l-219.794286-219.794286-21.577142 21.577143 41.947428 72.667429a36.717714 36.717714 0 1 1-63.561143 36.681142L238.994286 724.114286l21.321143-12.288z" fill="#6C47FF"/>
</svg>
